# xmcd
#
# Track frame offsets:
#	150
#	10671
#	21694
#	32970
#	44299
#	55824
#	68663
#	81596
#	94849
#	108821
#	123306
#	138034
#	152836
#	167764
#	182692
#	197645
#	214179
#	230715
#	247447
#	264820
#	282199
#	299638
#	317430
#	335318
#
# Disc length: 4740
#
# Revision: 1
# Processed by: cddbd v1.5.1PL0 Copyright (c) Steve Scherf et al.
# Submitted via: EasyCDDAExtractor 4.6.9.1
# Normalized: r0:TDELIM( - )
#
DISCID=5f128218
DTITLE=Various Artist - Country Christmas Songs
DYEAR=1900
DGENRE=
TTITLE0=Trick Pony - Winter Wonderland
TTITLE1=Trisha Yearwood - Let It Snow
TTITLE2=Garth Brooks - Santa Looked A Lot Like Daddy
TTITLE3=George Jones - My Mom And Santa Claus
TTITLE4=Toby Keith - Christmas Rock
TTITLE5=Roy Orbison - Pretty Paper
TTITLE6=Alan Jackson - Honky Tonk Christmas
TTITLE7=The Judds - Silver Bells
TTITLE8=Lorrie Morgan - Sleigh Ride
TTITLE9=Randy Travis - An Old Time Christmas
TTITLE10=Joe Diffie - Leroy The Redneck Reindeer
TTITLE11=George Strait - Christmas Cookies
TTITLE12=Cletus T Judd - Christ-mas
TTITLE13=The Mavericks - Santa Claus Is Back In Town
TTITLE14=Shedaisy - That's What I Want For Christmas
TTITLE15=Albama - Christmas In Dixie
TTITLE16=K.T. Oslin - Blue Christmas
TTITLE17=Reba McEntyyre - I Saw Mama Kissing Santa Claus
TTITLE18=Gary Allen - Please Come Home For Christmas
TTITLE19=Dolly Parton - Hard Candy Christmas
TTITLE20=Tim Wilson - Redneck Days of Christmas
TTITLE21=Martina McBride - Do You Hear What I Hear
TTITLE22=Faith Hill - Where Are You Christmas
TTITLE23=Connie Francis - Have Yourself A Merry Little Christmas
EXTD=
EXTT0=
EXTT1=
EXTT2=
EXTT3=
EXTT4=
EXTT5=
EXTT6=
EXTT7=
EXTT8=
EXTT9=
EXTT10=
EXTT11=
EXTT12=
EXTT13=
EXTT14=
EXTT15=
EXTT16=
EXTT17=
EXTT18=
EXTT19=
EXTT20=
EXTT21=
EXTT22=
EXTT23=
PLAYORDER=
